<svg width="17" height="15" viewBox="0 0 17 15" fill="none" xmlns="http://www.w3.org/2000/svg">
<path d="M8.22372 0.909091H10.9915V9.41051C10.9915 10.3651 10.7635 11.2003 10.3075 11.9162C9.85582 12.6321 9.22301 13.1903 8.40909 13.5909C7.59517 13.9872 6.64702 14.1854 5.56463 14.1854C4.47798 14.1854 3.5277 13.9872 2.71378 13.5909C1.89986 13.1903 1.26705 12.6321 0.815341 11.9162C0.363636 11.2003 0.137784 10.3651 0.137784 9.41051V0.909091H2.90554V9.17401C2.90554 9.67259 3.0142 10.1158 3.23153 10.5036C3.45313 10.8913 3.7642 11.196 4.16477 11.4176C4.56534 11.6392 5.03196 11.75 5.56463 11.75C6.10156 11.75 6.56818 11.6392 6.96449 11.4176C7.36506 11.196 7.67401 10.8913 7.89134 10.5036C8.11293 10.1158 8.22372 9.67259 8.22372 9.17401V0.909091ZM16.0364 0.909091V14H13.2686V0.909091H16.0364Z" fill="black"/>
</svg>
