<svg width="178" height="149" viewBox="0 0 178 149" fill="none" xmlns="http://www.w3.org/2000/svg">
<path d="M31.3949 0.54545V146H0.642045V0.54545H31.3949ZM146.54 0.54545H177.293V95.0057C177.293 105.612 174.76 114.892 169.694 122.847C164.675 130.801 157.644 137.004 148.6 141.455C139.557 145.858 129.022 148.06 116.995 148.06C104.921 148.06 94.3625 145.858 85.3189 141.455C76.2753 137.004 69.2441 130.801 64.2251 122.847C59.2062 114.892 56.6967 105.612 56.6967 95.0057V0.54545H87.4496V92.3778C87.4496 97.9176 88.657 102.842 91.0717 107.151C93.5339 111.459 96.9903 114.845 101.441 117.307C105.892 119.769 111.076 121 116.995 121C122.961 121 128.146 119.769 132.549 117.307C137 114.845 140.433 111.459 142.847 107.151C145.309 102.842 146.54 97.9176 146.54 92.3778V0.54545Z" fill="black"/>
</svg>
