<svg width="924" height="1041" viewBox="0 0 924 1041" fill="none" xmlns="http://www.w3.org/2000/svg">
<path d="M4.04687 25.9C6.475 40.4687 25.0906 242.003 45.325 473.484C65.5594 704.966 84.175 906.5 87.4125 921.878C93.8875 949.397 94.6969 950.206 191.012 976.916C459.725 1052.19 466.2 1053 599.747 1016.58C781.047 966.394 843.369 948.588 845.797 946.159C849.034 942.922 859.556 823.134 904.072 324.559C910.547 250.906 917.022 148.116 919.45 95.5062L923.497 -1.13003e-05H462.153H0L4.04687 25.9ZM755.147 248.478C753.528 279.234 747.053 306.753 742.197 309.991C737.341 314.038 637.787 314.847 521.237 311.609L308.372 306.753V342.366C308.372 362.6 310.8 390.119 313.228 403.878L318.894 428.969H527.712C721.962 428.969 737.341 429.778 737.341 442.728C736.531 482.388 705.775 778.619 701.728 782.666C700.109 785.094 646.691 801.281 583.559 819.088L470.247 850.653L390.928 829.609C348.031 817.469 293.803 802.9 271.141 796.425L229.053 784.284L224.197 713.869C220.959 675.019 216.103 631.313 213.675 616.744L209.628 590.844H270.331H331.034L334.272 635.359C336.7 659.641 339.937 681.494 342.366 683.922C344.794 686.35 372.312 696.063 404.687 704.966L462.153 721.153L526.903 703.347C581.941 688.778 591.653 683.922 591.653 668.544C591.653 659.641 594.081 627.266 597.319 597.319L602.175 542.281L404.687 540.663L207.2 538.234L193.441 392.547C186.156 312.419 179.681 234.719 179.681 220.15L178.872 194.25H469.437H760.003L755.147 248.478Z" fill="black"/>
</svg>
