<svg width="369" height="552" viewBox="0 0 369 552" fill="none" xmlns="http://www.w3.org/2000/svg">
<path d="M73.023 1.92665C36.723 9.72665 9.62303 37.0267 1.92303 73.4267C-6.57697 113.727 13.723 155.727 50.523 174.127C58.023 177.927 69.923 181.827 76.323 182.527C79.523 182.927 82.023 183.527 82.023 183.827C82.023 184.227 78.723 185.027 74.623 185.627C70.523 186.327 63.423 188.327 58.723 190.227C-0.176965 213.627 -18.677 285.527 21.323 335.027C33.723 350.427 55.623 363.227 74.623 366.227C82.023 367.327 84.623 368.927 79.223 368.927C74.323 368.927 61.523 372.627 53.523 376.327C39.623 382.727 27.723 392.327 18.723 404.427C9.32303 417.027 4.02303 429.127 1.52303 443.727C-7.27697 494.027 25.923 541.727 75.823 550.427C125.223 559.027 172.023 527.327 182.123 478.427C183.823 470.027 184.023 463.027 184.123 377.927C184.123 287.327 184.223 286.527 185.923 294.927C190.523 316.627 203.023 336.227 220.523 349.227C233.223 358.627 245.223 363.927 259.823 366.427C309.423 375.127 355.723 343.627 366.123 294.427C375.123 251.327 351.723 207.427 310.823 190.827C302.523 187.427 293.123 184.927 288.223 184.927C283.023 184.927 285.323 183.327 291.623 182.527C298.123 181.827 310.023 177.927 317.523 174.127C354.323 155.727 374.623 113.727 366.123 73.4267C358.423 36.8267 331.123 9.52665 294.523 1.82665C286.023 0.0266519 279.823 -0.0733481 183.523 0.0266519C88.623 0.0266519 80.923 0.226652 73.023 1.92665ZM258.923 185.427C223.023 192.027 193.623 220.827 185.923 256.927L184.123 265.427V224.627L184.023 183.927L225.323 184.027C263.323 184.127 265.923 184.227 258.923 185.427Z" fill="black"/>
</svg>
