<svg width="925" height="1041" viewBox="0 0 925 1041" fill="none" xmlns="http://www.w3.org/2000/svg">
<path d="M0 46.1345C0 95.5063 72.8437 940.494 77.7 946.16C79.3187 947.778 157.828 970.441 252.525 997.15C460.534 1055.43 458.916 1055.43 675.828 993.103C812.612 954.253 830.419 946.969 835.275 929.972C838.512 919.45 857.937 719.535 878.172 485.625C898.406 251.716 917.022 46.9438 919.45 29.947L924.306 8.40478e-05H462.153H0V46.1345ZM744.625 208.009C744.625 232.291 694.444 781.047 692.016 783.475C690.397 785.094 638.597 800.472 576.275 817.469L463.772 848.225L390.119 828.8C277.616 799.663 227.434 784.285 223.387 778.619C221.769 775.381 217.722 734.103 215.294 685.541L209.628 598.938H265.475C327.797 598.938 331.844 602.984 331.844 661.259C331.844 686.35 334.272 687.969 378.787 701.728C437.062 718.725 477.531 718.725 535.806 700.919C586.797 685.541 584.369 690.397 594.891 588.416L598.937 542.281H401.45H204.772L199.106 505.05C196.678 484.006 194.25 458.916 194.25 448.394V428.969H399.831H605.412L610.269 403.878C612.697 390.119 615.125 362.6 615.125 343.175V307.563H396.594H178.062V268.713C178.062 247.669 175.634 222.578 173.206 212.056L168.35 194.25H456.487C725.2 194.25 744.625 195.059 744.625 208.009Z" fill="black"/>
</svg>
