<svg width="805" height="805" viewBox="0 0 805 805" fill="none" xmlns="http://www.w3.org/2000/svg">
<path d="M67.2914 1.58789C37.1914 8.08789 13.1914 30.3879 2.79137 61.5879L0.391369 68.5879L0.0913691 398.888C-0.108631 758.988 -0.508631 734.688 5.49137 749.688C13.5914 770.088 27.9914 785.688 47.4914 795.488C57.3914 800.388 66.3914 802.888 78.6914 804.088C86.1914 804.888 184.091 805.088 409.391 804.888C702.391 804.588 729.991 804.388 735.991 802.888C753.191 798.588 766.991 790.988 778.891 779.088C790.791 767.188 798.391 753.388 802.691 736.188C804.191 730.188 804.391 702.588 804.691 409.088C804.891 202.388 804.591 84.9879 803.991 78.5879C800.191 40.2879 772.891 9.38789 735.991 1.48789C726.391 -0.51211 76.6914 -0.51211 67.2914 1.58789ZM644.391 367.988C667.091 372.988 681.891 380.888 697.491 396.488C707.691 406.788 719.591 422.888 718.591 425.288C718.091 426.488 660.891 463.588 660.491 462.888C657.891 457.888 649.191 446.688 644.691 442.588C636.591 435.288 628.291 431.988 616.291 431.288C597.791 430.288 584.591 436.788 578.591 449.988C575.891 455.588 575.491 470.488 577.791 476.088C583.391 489.788 593.791 496.988 630.391 512.588C684.791 535.788 709.091 551.888 725.091 575.288C743.991 603.188 747.191 648.788 732.491 680.688C717.391 713.288 683.291 734.988 638.891 740.088C623.791 741.888 593.391 740.888 579.591 738.088C536.491 729.588 502.891 706.488 482.391 671.288C480.391 667.788 479.091 664.488 479.491 664.088C480.691 662.988 539.191 629.088 539.991 629.088C540.291 629.088 542.591 632.188 545.091 635.888C557.591 654.688 574.391 667.188 593.591 672.088C599.291 673.588 604.591 674.088 614.291 674.088C635.191 674.088 647.291 669.888 657.291 659.088C667.891 647.488 668.991 629.788 659.791 616.488C653.591 607.388 637.291 598.188 598.391 581.588C540.191 556.788 515.091 533.788 505.291 496.488C502.091 484.388 500.891 459.788 502.891 447.288C509.391 406.988 541.291 375.788 584.391 367.688C597.091 365.288 597.391 365.188 616.891 365.588C630.591 365.888 637.791 366.488 644.391 367.988ZM437.591 507.288C437.191 643.388 437.191 645.788 435.091 656.588C432.491 669.988 429.291 679.488 423.991 689.788C409.191 718.288 381.591 735.888 344.991 740.188C332.891 741.688 302.691 740.688 293.591 738.688C267.791 732.788 246.391 720.388 230.191 701.788C223.891 694.688 213.491 678.988 211.591 673.888C211.091 672.488 216.591 668.888 239.691 654.988C255.491 645.488 269.291 637.088 270.491 636.388C272.391 635.188 272.891 635.588 277.991 644.288C290.991 666.388 305.791 675.388 326.191 673.788C341.291 672.588 350.691 667.188 355.791 656.888C362.091 644.188 361.891 648.188 361.891 501.988V369.088H399.891H437.991L437.591 507.288Z" fill="black"/>
</svg>
