<svg width="839" height="946" viewBox="0 0 839 946" fill="none" xmlns="http://www.w3.org/2000/svg">
<path d="M561.4 1.4C559.6 2.8 559.5 4.9 559 62.2C558.6 115.2 558.3 121.5 556.9 121.8C556.1 121.9 550.5 119.3 544.6 115.9C535.8 110.9 533.3 109.9 530.7 110.3C526.9 110.9 453.7 152.9 450 156.6L447.5 159L447.2 205C447 243.4 447.2 251.4 448.4 253.8C450.5 257.8 527.1 302 532.1 302C534.7 302 544.1 297.1 573 280.4C593.6 268.5 611.7 257.5 613.3 255.9L616 253V141.7C616 37.9 615.8 30.4 614.2 28.4C612.5 26.3 566.4 -4.50015e-06 564.4 -4.50015e-06C563.8 -4.50015e-06 562.5 0.599996 561.4 1.4ZM546.5 183.1L559 190.4L558.8 206.4L558.5 222.3L546 229.6C539.1 233.6 532.9 236.9 532.1 237C531.3 237 524.6 233.6 517.3 229.4L504 221.7L504.2 206.1L504.5 190.6L517.5 182.8C524.7 178.6 531.3 175.3 532.2 175.5C533.2 175.6 539.6 179.1 546.5 183.1Z" fill="black"/>
<path d="M76.5 110.8C49.7 125.7 4 152.7 2.3 154.6L0 157.1V218C0 272 0.2 279 1.6 280.4C2.4 281.3 4 282 5.1 282C8.5 282 53.3 255.5 55.2 252.3C56.8 249.8 57 246.3 57 219.7C57 190.1 57 189.9 59.3 187.7C62.5 184.5 81.4 174 83.9 174C87.3 174 108.7 187 109.9 189.7C110.6 191.2 111 202.5 111 221.3C111 245.3 111.3 250.9 112.5 252.6C114.1 255 160.7 282 163.1 282C167 282 167 281.7 167 217.9V156.2L164.2 153.8C158.9 149.4 86.4 108 83.9 108C82.6 108 79.3 109.3 76.5 110.8Z" fill="black"/>
<path d="M265 131.5C233 150.1 226.2 154.5 224.7 157.2C223.1 160.2 223 164.1 223.2 206.2L223.5 252L226 254.4C228.1 256.4 292.1 293.9 302.9 299.5C304.8 300.5 307.4 301 308.9 300.7C313.4 299.8 389.2 255.5 390.6 252.9C391.6 251 391.9 240.5 392 204.4C392 159.7 391.9 158.2 390 155.7C388.9 154.3 370.7 143.2 349.7 131.1C317.2 112.4 310.8 109 307.4 109C304.2 109.1 297.1 112.8 265 131.5Z" fill="black"/>
<path d="M751.5 109.9C750.4 110.4 732.4 120.7 711.5 132.8C686.4 147.3 673.1 155.6 672.3 157.1C670.6 160.4 670.5 249.7 672.1 253.4C673 255.3 683.3 261.7 711.9 277.9C733.1 290 751.7 300.1 753.2 300.5C756.2 301.3 754.1 302.3 783.3 286.2C807.6 272.8 809.6 271.1 805.4 267C804.3 266 788 256.3 769 245.4C750 234.6 732.8 224.6 730.8 223.3L727 221V205.6C727 192.3 727.2 190.1 728.8 188.8C729.7 188 735.9 184.3 742.4 180.5L754.4 173.7L758.6 176.1C760.9 177.3 767 180.9 772.2 183.9L781.5 189.5L782 202.8C782.5 216.6 783 217.9 787.3 218C789.7 218 833.9 192.4 836.8 189.3C838.9 187 839 186 839 172.4C839 158.7 838.9 157.8 836.8 155.7C833.3 152.4 759.8 110.1 756.4 109.5C754.8 109.3 752.6 109.5 751.5 109.9Z" fill="black"/>
<path d="M746.3 190.3L739 194.5L739.3 204.9L739.5 215.2L747.3 219.7L755 224.2L762.8 219.7L770.5 215.2L770.7 204.9L771 194.5L763.5 190.2C759.4 187.9 755.5 186 754.8 186.1C754.1 186.1 750.2 188 746.3 190.3Z" fill="black"/>
<path d="M406.2 316.5C403.3 317.3 399.5 318.7 397.7 319.6C396 320.5 341.6 351.7 277 388.9C148.5 462.9 151.6 460.8 145 473.9C138.8 486.3 139 480.4 139 629C139 717.1 139.4 766.8 140 771C140.6 774.6 142.6 780.8 144.5 784.8C150.4 797.4 154.8 800.8 193 822.6C227.3 842.2 237.5 847.2 249.3 850.9C264.3 855.5 284.2 855.9 299.8 851.9C319.2 847 334.6 833 341.1 814.4C346.1 800.2 346 803.3 346 654.9C346 517.3 346 516 344 514C342.2 512.2 340.7 512 324.6 512C309 512 307 512.2 304.9 513.9L302.5 515.8L302 653.2L301.5 790.5L299.2 795.2C296.2 801.2 289.3 807.4 283.3 809.4C276.4 811.8 266.2 811.4 257.7 808.6C250.4 806.1 187.4 770.8 183.5 766.9C181.5 765 181.5 763.4 181.2 632.2C181 544.5 181.3 498.3 181.9 496C182.5 494.1 183.9 491.9 185.2 491.1C201.5 481 417.5 357 418.7 357C421.9 357.1 653.4 491.6 654.7 494.2C656.5 497.6 656.5 762.4 654.7 765.8C653.9 767.4 617.8 788.8 543.5 831.7C414.7 906 419.4 903.4 417.1 902.7C416.1 902.5 401.6 894.1 384.8 884.1C368.1 874.2 353.5 866 352.5 866C351.5 866 346.1 868.3 340.6 871.2C335 874 326.2 878 321 880.1C311 884 308.8 885.8 310.6 888.7C312.5 891.8 395.8 940.8 402.9 943C411.6 945.8 424.8 945.7 433.3 942.9C437.3 941.6 482.9 915.9 558.1 872.6C665.9 810.4 677.1 803.7 683 797.9C686.7 794.3 690.7 789.1 692.2 786C698.4 773.6 698.1 781.8 697.8 626.4L697.5 484.5L695.2 478.8C692.2 471.4 686.1 463.3 680.2 458.8C672.7 453 441.1 319.8 435 317.7C427.7 315.1 413.2 314.5 406.2 316.5Z" fill="black"/>
<path d="M469.2 496C448 497.8 428 502.9 413 510.4C402.6 515.7 397.4 519.4 389.4 527.6C374.1 543.2 367 565.9 370 590C374.3 626.1 397.3 645 448.5 654.5C455.7 655.8 472.1 658 485 659.5C538.9 665.4 561.9 671.4 571.2 681.8C575.5 686.6 576.4 690.3 575.8 700.8C574.9 715 567.6 724.3 553 729.9C540.7 734.7 530.1 736.2 505.2 736.7C444.3 738.1 419.4 726.7 412.5 694.2C410.2 683.5 409.2 681.3 406.1 680C404.2 679.3 396.9 679 384.1 679.2C364.9 679.5 364.8 679.5 362.8 682C360.9 684.3 360.8 685.4 361.3 695C362.8 720.2 373.2 741.4 391.3 756C399.8 762.9 419.1 772.3 432.4 776C463.8 784.7 511.3 786.3 545 779.8C589.2 771.4 616.8 750.2 626.2 717.4C629.2 707 629.5 682.3 626.7 672C621 650.8 606.9 636.7 581.8 627.3C564.6 620.8 547.9 617.3 503.3 611C457.7 604.5 441.5 600.9 431.2 594.9C424.7 591.2 422.1 586.3 422 577.9C421.9 558.3 435.7 546.9 464 543C474.3 541.6 504 541.6 515.2 543C545.6 546.7 560.8 558.6 567.6 584C570.6 595.3 570 595 593.5 595C613.3 595 613.7 595 615.8 592.7C618.5 589.9 618.7 584.7 616.5 573.3C612.7 553.3 606.1 540.1 593.5 527.4C580.3 514.1 567.1 507 545.1 501.4C526.2 496.6 491.7 494.1 469.2 496Z" fill="black"/>
</svg>
