<svg width="893" height="920" viewBox="0 0 893 920" fill="none" xmlns="http://www.w3.org/2000/svg">
<path d="M614.237 1.08114C591.637 2.88114 569.237 6.68114 548.237 12.2811C534.137 15.9811 533.237 15.9811 511.737 13.0811C490.937 10.2811 457.937 9.28114 440.737 10.8811C411.537 13.5811 379.737 22.9811 357.937 35.2811L352.537 38.2811L341.237 34.5811C313.837 25.6811 275.637 17.4811 246.337 14.3811C228.337 12.3811 190.837 12.1811 176.237 13.8811C112.437 21.4811 66.4367 47.3811 35.9367 92.9811C15.5367 123.681 4.03667 162.781 0.636672 213.481C-2.06333 254.381 3.63667 298.681 21.3367 374.981C35.6367 436.081 49.4367 483.181 67.8367 532.681C89.2367 590.181 109.137 626.281 133.937 652.481C169.637 690.181 212.737 696.281 249.537 668.781L254.937 664.781L257.837 668.281C262.937 674.481 280.337 684.881 292.737 689.181C301.037 691.981 312.937 694.681 325.737 696.581C341.037 698.781 369.037 698.081 382.037 695.081C389.437 693.381 402.937 689.081 408.937 686.581C410.937 685.681 411.237 688.581 412.737 730.981C414.737 787.181 417.237 803.081 429.237 839.681C438.337 867.081 450.137 886.281 465.137 897.881C488.237 915.681 519.837 923.181 552.237 918.481C573.637 915.381 594.737 908.981 613.237 899.981C667.437 873.681 693.837 822.281 702.737 725.981C703.337 719.681 704.437 703.181 705.137 689.481C705.937 675.681 706.837 663.781 707.137 662.981C707.637 661.681 711.137 661.481 729.037 661.381C769.537 661.081 795.537 655.181 828.837 638.581C855.137 625.381 870.737 612.681 882.837 594.681C894.437 577.381 895.537 562.481 886.737 544.881C882.637 536.881 876.837 530.681 868.837 525.981C856.337 518.681 847.337 517.481 830.737 521.081C812.937 524.881 799.237 527.081 788.537 527.681C782.537 527.981 777.737 527.981 777.737 527.581C777.737 527.181 779.337 524.081 781.337 520.681C833.737 432.081 875.737 314.581 885.737 228.481C892.537 170.081 886.637 130.281 867.437 104.781C840.137 68.3811 800.437 38.3811 756.737 20.9811C714.937 4.28114 663.137 -2.91886 614.237 1.08114ZM664.737 25.4811C727.037 28.6811 788.337 55.9811 828.637 98.4811C849.337 120.481 855.737 131.881 859.837 154.981C861.637 164.581 861.637 206.681 859.837 220.481C855.737 253.381 849.437 283.281 839.237 317.981C817.137 393.281 783.537 467.581 741.537 533.781C738.337 538.881 735.437 543.681 735.137 544.381C734.837 545.181 736.337 546.481 739.237 547.881C754.437 555.081 785.437 554.881 823.737 547.281C841.537 543.881 847.837 543.781 854.137 546.981C861.437 550.681 864.737 555.381 865.437 562.881C866.237 571.681 862.937 577.981 851.337 589.481C833.037 607.681 804.737 622.581 776.137 628.881C747.637 635.281 711.337 636.381 692.937 631.581L687.937 630.181L687.337 634.381C687.037 636.581 685.837 646.581 684.737 656.481C679.037 708.081 670.137 773.781 666.037 794.481C655.337 848.481 630.637 874.881 576.737 889.781C558.737 894.781 547.237 896.281 530.837 895.681C510.237 894.981 496.537 890.781 481.937 880.681C461.637 866.681 444.337 837.581 439.337 808.981C434.537 781.381 431.737 732.781 431.737 674.681C431.737 656.181 431.337 640.981 430.937 640.981C430.437 640.981 429.237 641.881 428.237 642.981C425.437 646.081 412.837 654.381 405.237 658.181C395.937 662.881 386.037 666.381 375.737 668.581C362.737 671.381 333.037 671.181 318.537 668.181C293.637 662.981 276.637 653.781 271.337 642.481C266.837 633.181 268.637 624.081 276.237 617.081C283.937 609.981 290.937 607.181 314.737 601.981C332.437 598.081 346.237 593.581 351.237 590.181C355.337 587.281 373.637 566.381 373.737 564.381C373.737 563.681 370.737 562.981 366.437 562.681C354.237 561.581 338.437 557.281 327.337 551.881L322.537 549.481L317.337 555.181C298.537 575.881 271.137 606.881 259.637 620.481C241.637 641.681 235.837 646.881 223.037 653.381C191.437 669.281 157.637 650.481 127.137 600.081C96.7367 549.681 65.8367 459.081 42.2367 351.981C27.4367 284.481 23.3367 250.581 25.6367 214.081C29.3367 154.781 45.0367 113.681 75.3367 83.3811C109.437 49.2811 160.237 33.4811 224.137 36.9811C264.937 39.1811 304.237 47.0811 344.537 60.9811L355.837 64.8811L361.437 61.2811C368.637 56.7811 387.237 47.8811 395.637 45.0811C417.437 37.6811 436.837 34.7811 463.737 34.7811C485.137 34.8811 499.437 36.1811 518.737 40.1811C524.537 41.3811 529.937 42.2811 530.737 42.2811C531.537 42.2811 537.537 40.5811 544.137 38.5811C563.437 32.6811 588.537 28.0811 613.337 25.9811C634.837 24.1811 639.437 24.1811 664.737 25.4811Z" fill="black"/>
<path d="M625.737 50.581C615.437 51.181 601.337 52.881 587.437 55.181L574.637 57.281L587.437 63.981C604.837 72.981 610.537 76.481 624.337 86.581C657.837 110.981 685.737 142.081 707.937 179.581C719.137 198.581 730.337 223.381 734.737 239.281C738.337 251.981 737.337 276.881 731.737 312.481C729.137 328.781 728.037 358.781 729.637 372.481C730.237 377.981 731.637 390.581 732.737 400.481C736.237 430.881 735.337 459.581 730.237 478.981C728.037 487.381 722.337 501.881 718.137 509.481L714.837 515.481L717.137 518.281L719.337 521.081L729.937 503.281C753.237 464.081 770.537 429.481 787.437 387.981C828.237 287.881 845.337 192.481 830.737 145.881C828.137 137.481 825.937 134.081 815.237 121.881C785.137 87.681 743.037 64.081 695.637 54.981C677.737 51.481 645.437 49.481 625.737 50.581Z" fill="black"/>
<path d="M437.237 61.5812C353.837 71.7812 300.637 139.781 287.237 253.481C286.437 260.081 285.737 265.681 285.737 265.981C285.737 266.281 290.137 264.381 295.537 261.781C328.337 245.681 363.737 239.481 387.237 245.481C408.337 250.881 425.537 266.781 432.837 287.481C436.137 296.981 441.337 323.981 443.937 345.481C445.937 362.181 445.637 404.681 443.437 418.481C439.637 442.081 434.937 457.481 423.237 484.481C414.937 503.581 408.737 520.181 404.737 533.881C403.537 537.881 402.337 541.781 402.137 542.381C401.837 543.181 404.537 543.481 410.937 543.481C419.537 543.481 420.837 543.781 428.037 547.281C441.037 553.381 450.437 564.481 455.537 579.981C456.837 583.781 457.137 594.881 457.237 651.481C457.437 717.881 458.437 746.581 461.237 777.481C464.037 806.981 466.337 816.581 474.837 832.981C487.837 858.381 507.237 870.981 533.437 870.981C541.337 870.981 556.837 868.681 567.237 865.981C607.037 855.481 625.337 840.381 635.737 809.181C639.937 796.681 641.937 786.181 646.637 753.481C654.937 694.781 663.437 622.981 664.737 598.981C665.937 577.381 668.137 569.381 675.637 559.481C680.337 553.281 688.337 547.581 696.637 544.581L702.837 542.381L696.337 533.881C684.737 518.881 677.137 506.781 668.937 490.481C664.637 481.681 656.837 467.081 651.837 457.981C623.337 406.881 606.237 364.881 600.637 331.981C598.737 320.781 599.037 297.981 601.137 289.981C604.237 278.281 609.437 269.181 617.737 260.981C634.037 244.681 656.537 238.081 691.937 239.181C706.337 239.681 707.837 239.581 707.237 238.081C706.837 237.181 705.937 234.481 705.037 231.981C702.637 224.581 690.437 200.281 683.237 188.581C652.937 138.781 611.037 101.281 561.737 79.7812C525.537 63.9812 476.337 56.7812 437.237 61.5812Z" fill="black"/>
<path d="M179.737 63.4811C142.337 68.1811 114.337 80.4811 93.2367 101.481C72.3367 122.481 59.5367 150.881 53.6367 189.981C51.7367 202.081 51.3367 208.881 51.3367 231.481C51.2367 259.381 51.6367 263.581 57.3367 295.981C58.1367 300.681 59.2367 306.681 59.7367 309.481C62.9367 327.881 70.4367 361.781 77.3367 389.481C103.437 492.981 134.237 570.381 164.937 609.281C172.637 619.081 181.137 626.381 189.537 630.281C197.437 633.981 204.837 633.781 212.637 629.681C220.737 625.481 225.137 621.481 238.537 605.481C253.837 587.281 270.837 567.981 283.237 554.481C298.237 538.081 300.737 535.281 300.737 534.881C300.737 534.681 297.037 530.681 292.637 525.981C275.237 507.681 263.537 485.681 258.137 460.881C255.737 449.581 255.237 426.981 257.137 410.981C261.037 377.181 261.437 357.081 259.137 296.981C257.737 260.981 265.737 210.681 278.937 172.481C289.737 141.281 304.437 115.281 324.037 92.8811L331.637 84.1811L328.937 83.1811C314.537 77.5811 274.237 68.2811 250.737 65.0811C226.837 61.7811 198.537 61.1811 179.737 63.4811Z" fill="black"/>
<path d="M672.737 264.981C639.937 267.681 624.637 282.381 624.737 311.381C624.837 341.981 642.237 388.381 676.537 449.481C681.837 458.781 688.737 472.081 692.037 478.981C698.937 493.581 698.837 493.581 703.737 478.381C710.237 457.981 711.037 436.881 706.737 399.981C701.337 353.981 701.537 339.781 708.137 294.481C708.937 288.981 709.837 280.381 710.237 275.281L710.937 266.181L703.537 265.581C689.037 264.481 681.137 264.381 672.737 264.981ZM681.737 278.581C688.537 281.281 688.437 287.081 681.437 294.681C676.137 300.381 670.837 302.881 663.837 302.981C657.237 302.981 651.037 300.281 646.737 295.381C640.937 288.781 643.937 283.281 655.237 279.381C663.737 276.481 675.637 276.181 681.737 278.581Z" fill="black"/>
<path d="M354.237 269.681C336.137 271.881 306.537 283.281 290.437 294.181L284.637 298.081L285.437 309.281C286.637 326.281 286.337 379.881 284.937 393.981C284.237 400.881 282.937 411.881 282.037 418.481C277.837 451.081 287.737 483.281 308.937 506.481C325.337 524.481 350.937 536.981 371.237 536.981C376.637 536.981 376.637 536.981 377.637 533.181C381.837 518.181 390.237 495.581 400.537 472.481C404.837 462.581 409.837 450.381 411.537 445.481C423.637 409.581 423.837 368.481 412.137 309.981C409.237 295.581 405.637 286.981 399.837 280.681C395.237 275.781 386.937 271.581 378.737 269.981C373.737 268.981 360.737 268.881 354.237 269.681ZM386.137 286.081C398.537 290.681 401.937 297.581 395.737 305.181C388.837 313.581 376.237 316.281 366.237 311.581C358.137 307.781 351.737 299.881 351.737 293.681C351.737 288.981 355.137 285.481 361.137 284.081C367.237 282.581 379.537 283.581 386.137 286.081Z" fill="black"/>
<path d="M707.937 567.681C695.437 571.981 691.637 577.781 690.937 593.481C690.537 603.381 690.537 603.581 692.937 604.681C698.737 607.281 707.837 608.381 724.737 608.381C758.137 608.281 787.137 601.581 808.737 588.981C815.637 584.981 832.137 572.981 831.537 572.481C831.337 572.281 826.337 573.081 820.237 574.081C773.437 582.281 737.237 579.681 720.837 566.881C717.837 564.481 716.937 564.581 707.937 567.681Z" fill="black"/>
<path d="M406.137 568.981C403.237 570.181 397.937 575.581 388.437 587.481C366.737 614.481 361.137 617.581 312.737 628.481C304.037 630.481 298.737 632.481 298.737 633.781C298.737 635.381 310.337 639.981 319.637 641.981C365.037 651.881 403.237 639.481 427.137 606.981C431.437 601.181 431.737 600.381 431.737 594.581C431.737 590.781 430.937 586.881 429.837 584.281C426.837 577.881 420.337 571.381 415.037 569.581C409.837 567.781 409.137 567.781 406.137 568.981Z" fill="black"/>
</svg>
