<svg width="530" height="472" viewBox="0 0 530 472" fill="none" xmlns="http://www.w3.org/2000/svg">
<path d="M364.5 0.600042C336.8 4.70004 305 22.2 272.7 51.3L265 58.3L259.2 52.8C239.2 33.8 210 14.9 188.6 7.10004C147.9 -7.59996 119.5 4.00004 108.1 40C100.8 63.1 100.9 99.0001 108.5 134.9C109.9 141.2 110.6 146.7 110.2 147C109.8 147.4 103.8 149.5 96.8 151.8C46.4 168.3 10.7 194.8 2.20003 222C-0.499971 230.6 2.8985e-05 243.9 3.20003 251.8C7.30003 261.7 11.9 268.7 20 277C37.7 295.1 62.6 309.5 97 321.4C104.4 324 110.6 326.2 110.7 326.4C110.8 326.5 110.5 328.2 110 330.1C107.7 337.8 104 362 103 376C101 403.1 104.2 425.5 112.6 442.8C117.9 453.7 125 461.5 133.9 466C141.9 470 147.7 471.2 159 471.1C186.3 471 218.9 455.2 254.1 425.1L266 414.9L276.2 423.9C312.6 455.5 344.6 471.4 372 471.3C387.6 471.3 397.5 467.4 407 457.7C417 447.5 423.5 431.9 426.6 410.9C429.6 390.2 427.5 356.5 421.6 331.2C420.8 327.8 420.5 324.8 420.8 324.6C421.2 324.4 426 322.8 431.5 321C452.7 314 473.7 304 489.9 293.3C494.6 290.1 503.3 282.8 509.1 277C517.8 268.4 520.4 265.1 523.7 258.4C533.6 238.5 531.3 220.8 516.3 201.9C501.1 182.9 470.3 164.4 433.5 152.2C425.8 149.6 419.4 147.5 419.3 147.5C419.3 147.5 420.3 142.4 421.5 136.2C426.7 111.5 428.5 79.2 425.9 60.5C421.7 29.9 408.8 9.60004 389.3 2.90004C383.7 1.00004 370.3 -0.199958 364.5 0.600042ZM173 27.1C188.3 31.2 210.5 43.6 229.2 58.6C237.9 65.6 248 74.7001 248 75.5001C248 75.8001 245.2 79.0001 241.9 82.7001C234.3 91.1001 213.9 116.4 208.2 124.6L203.9 130.7L196.3 131.4C185.6 132.3 162.8 135.7 147.6 138.6C140.6 140 134.6 140.9 134.4 140.7C133.7 140 130.1 122.6 128.3 111.3C126 96.8001 126 66.4 128.2 56.5C134.8 27.6 146.2 20.1 173 27.1ZM380.4 25.1C389.7 27.7 397.6 39.6 401.3 56.9C403.7 68.2 404.1 94.7001 402.1 109C400.3 121.7 396.8 139.4 395.9 140.4C395.4 140.9 389.6 140.2 381.8 138.7C366.9 135.7 345.3 132.5 333.9 131.4L326.3 130.8L320.5 122.6C312 110.9 301 97.0001 290.8 85.3001L282 75.2001L289.2 68.6001C306.2 53.4001 321.7 42.5 337.5 34.5C355.5 25.4 370 22.2 380.4 25.1ZM274.7 103.3C286.7 117.3 294.3 127 293.8 127.6C293.5 127.8 280.4 127.9 264.6 127.8L235.8 127.5L243 118.6C252.5 106.7 264.3 93.1001 265.2 93.0001C265.6 93.0001 269.9 97.6001 274.7 103.3ZM292 152C311.1 152.9 312.6 153.1 314.1 155.1C321.2 164.6 342.4 200.2 354.3 222.9L360.8 235.3L354.4 248.1C346.6 263.8 332 289.3 321.3 306L313.4 318.5L307.9 319.3C300.7 320.3 234.6 320.6 224.8 319.6L217 318.8L206.2 301.7C193.3 281.4 183.4 263.9 175.4 247.7L169.5 236L175.4 224.2C183.4 208.1 196.4 185.3 207.7 167.7C216.5 154 217.4 153 220.3 152.9C222.1 152.8 229.8 152.4 237.5 152.1C259 151 269.7 151 292 152ZM176.3 173.2C170.9 182.2 164.5 193.5 162 198.3C159.5 203.1 157.2 207 156.9 207C155.6 207 140.3 165.4 141.3 164.4C142.3 163.3 184.8 155.8 185.8 156.5C186 156.7 181.7 164.2 176.3 173.2ZM355 158C359.1 158.6 368.6 160.2 376.2 161.7L389.8 164.3L386.3 174.4C383.1 183.8 374.1 207.1 373.5 207.8C373.4 208 370.9 203.7 368 198.3C365.1 193 358.4 181.2 353 172.3C345.1 159.1 343.7 156.1 345.4 156.5C346.5 156.7 350.9 157.4 355 158ZM118.9 174.2C121.6 183.2 130.6 207.1 136.7 221.3L143 236.1L138.5 246.4C132.7 259.8 124 282.4 120.5 293C119 297.7 117.4 301.9 117 302.3C115.9 303.6 93.7 295.4 78.4 288C60.4 279.4 48.5 271.5 38.4 261.5C28.4 251.5 24.5 244.3 24.5 235.5C24.5 227.1 27.6 221.3 37.4 211.4C52.3 196.4 75.8 183.5 106.5 173.4C112 171.6 116.8 170.1 117.1 170.1C117.4 170 118.2 171.9 118.9 174.2ZM433 177.2C459.3 187 480 198.9 492.5 211.5C500.5 219.4 506 229 506 235C506 252.3 482.1 274.2 446.1 290C431.2 296.5 414 302.2 413.5 300.7C413.2 300.1 411.6 295.4 409.9 290.5C405.6 278.3 398.2 259.7 392.2 246.6L387.3 235.7L392.1 224.9C397.7 212.2 406.8 188.6 410.1 178.2L412.4 170.9L416 171.5C417.9 171.9 425.6 174.4 433 177.2ZM380.3 279.5C387.7 298.5 390.5 306.9 389.7 307.6C388.3 309.1 345.3 316.6 344.2 315.6C344 315.3 345.5 312.3 347.7 308.8C352.9 300.6 367 276 370.4 269.1C371.9 266.2 373.5 264.1 374 264.6C374.4 265.1 377.3 271.8 380.3 279.5ZM164 277.3C167.6 284 174.2 295.5 178.7 302.9L187 316.3L180.3 315.6C173.3 314.9 145.8 310.3 142.8 309.4C141.8 309.1 141 308.2 141 307.5C141 304.5 155.8 265 156.9 265C157.2 265 160.4 270.5 164 277.3ZM399.2 339.5C406.7 375 406.1 410.1 397.5 428.7C393.6 437.4 390.1 441.8 385.1 444.8C380.9 447.2 379.6 447.5 371 447.4C363.5 447.3 359.9 446.8 353.7 444.7C333.7 437.8 309.3 422.1 288.5 402.8L282.6 397.3L289.1 389.9C298.2 379.6 305.9 369.9 317.1 354.7L326.6 341.6L342.3 339.8C356.7 338.2 382.7 334.1 391 332C397 330.6 397.4 330.9 399.2 339.5ZM156.5 336C165.8 337.6 180.4 339.6 188.9 340.4C197.4 341.3 204.5 342.1 204.6 342.3C204.7 342.4 208.8 347.9 213.7 354.5C222.9 366.9 233.5 379.9 243.4 391L249.1 397.3L246.8 399.8C245.5 401.1 240 406 234.5 410.5C198.7 440 162.9 453.9 145.5 444.9C132.1 438 125.1 415.7 126.3 383.5C126.8 369.5 130.2 345.4 133 335.7C134 332.2 134.4 331.9 136.8 332.5C138.3 332.9 147.1 334.4 156.5 336ZM292.8 347.2C290.1 351.1 272.2 373.2 268.4 377.4L265.8 380.4L263.1 377.3C253.2 365.7 240.1 350 238.2 347.2L235.9 344H265.5H295.1L292.8 347.2Z" fill="black"/>
<path d="M253 189.5C238.8 193.5 228.7 201.8 222.5 214.5C206.8 246.2 229.7 283 265 283C300.8 283 323.4 246.1 307.3 213.8C301.2 201.8 290.4 192.9 277.5 189.5C270.5 187.7 259.2 187.7 253 189.5Z" fill="black"/>
</svg>
