<svg width="300" height="285" viewBox="0 0 300 285" fill="none" xmlns="http://www.w3.org/2000/svg">
<path d="M134.901 1.33C110.501 5.83 89.701 21.13 76.501 44.23C71.601 52.83 66.101 67.73 63.301 79.83C60.701 91.13 59.701 116.23 61.401 129.43C63.701 147.73 70.801 169.63 80.301 187.33C83.601 193.63 83.901 194.63 82.701 196.83C80.801 200.43 81.101 209.63 83.301 214.33C86.901 222.33 94.401 226.33 104.401 225.63C121.601 224.43 129.601 203.13 117.601 190.53C113.801 186.53 110.301 184.83 103.701 184.03L98.001 183.33L93.801 175.03C84.301 156.53 79.701 138.43 78.701 116.73C77.501 89.03 82.601 67.83 95.501 47.73C104.101 34.33 115.201 26.03 131.401 21.03C151.901 14.73 168.401 18.63 182.801 33.13C190.501 40.73 196.401 50.03 200.801 61.13C203.801 68.73 207.401 81.93 207.401 85.33C207.401 87.23 208.701 87.93 216.701 90.53C224.101 92.83 226.001 93.13 226.201 92.03C226.801 89.53 223.301 70.63 220.701 62.33C210.001 28.33 185.401 5.03 156.001 0.930002C146.601 -0.369998 143.901 -0.369998 134.901 1.33Z" fill="black"/>
<path d="M119.201 90.8299C111.101 95.1299 106.301 105.43 108.301 114.13C110.701 124.13 120.601 131.53 130.301 130.63C136.901 129.93 142.301 127.03 145.901 121.93L148.901 117.73L163.401 118.23C179.001 118.73 187.801 120.23 201.701 124.93C241.301 138.03 272.201 167.43 280.401 199.43C283.801 212.53 282.701 224.13 277.201 235.33C262.601 265.03 230.801 275.03 192.601 261.83L186.601 259.73L178.601 266.03C174.201 269.53 170.501 272.63 170.501 272.93C170.401 273.23 174.101 274.93 178.701 276.73C214.301 290.23 249.001 286.13 275.301 265.23C287.101 255.83 294.401 244.73 298.001 230.83C300.601 220.83 299.501 200.13 295.901 188.83C290.701 172.43 281.601 158.33 267.201 144.13C257.601 134.63 253.401 131.23 244.301 125.23C220.901 109.93 193.401 101.43 163.001 100.13L148.101 99.5299L144.701 95.7299C142.901 93.7299 139.801 91.3299 138.001 90.4299C133.301 88.2299 123.901 88.4299 119.201 90.8299Z" fill="black"/>
<path d="M35.3007 140.63C10.8007 162.43 -0.0993184 184.43 0.000681574 212.33C0.100682 247.33 18.8007 271.53 53.0007 281.03C59.8007 282.93 63.4007 283.23 78.4007 283.23C94.7007 283.23 96.7007 282.93 107.501 280.13C150.801 268.63 183.901 243.43 204.501 206.23C206.701 202.13 209.201 198.83 210.001 198.83C210.801 198.83 212.901 198.13 214.701 197.23C222.401 193.33 226.401 186.93 226.401 178.33C226.401 157.23 199.401 149.33 187.701 166.93C185.301 170.63 184.901 172.23 184.901 178.33C184.901 184.43 185.301 186.03 187.701 189.73L190.501 193.93L185.501 202.13C172.601 223.63 151.601 241.63 124.401 254.73C107.901 262.63 98.6007 265.03 81.3007 265.53C65.0007 266.13 55.8007 264.53 44.7007 259.13C32.5007 253.23 20.8007 237.73 17.4007 222.93C12.6007 202.03 20.8007 180.03 40.9007 160.23C46.6007 154.63 48.9007 151.73 48.4007 150.73C48.0007 149.93 46.8007 145.83 45.8007 141.63C44.7007 137.33 43.7007 133.83 43.4007 133.83C43.1007 133.83 39.5007 136.93 35.3007 140.63Z" fill="black"/>
</svg>
