<svg width="428" height="428" viewBox="0 0 428 428" fill="none" xmlns="http://www.w3.org/2000/svg">
<path d="M87.5001 1.50009C71.8001 3.20009 64.0001 5.40009 51.5001 11.5001C33.4001 20.4001 20.3001 33.5001 11.5001 51.5001C5.1001 64.6001 2.2001 75.7001 1.0001 91.8001C-0.199902 107.1 -0.199902 320.9 1.0001 336.2C2.2001 352.5 5.1001 363.4 11.7001 377C17.0001 387.7 18.1001 389.2 28.4001 399.5C37.7001 408.7 41.0001 411.3 48.5001 415.1C62.8001 422.5 72.7001 425.2 92.5001 427C107.2 428.3 320.8 428.3 335.5 427C365.6 424.2 383.5 416.5 400.6 398.8C411.2 387.9 417.3 377.9 421.9 363.7C427.5 347 427.3 350.8 427.7 224C428 149.7 427.7 101.5 427.1 93.0001C425.8 75.4001 423.1 65.1001 416.3 51.0001C411.1 40.2001 410 38.8001 399.6 28.4001C389.3 18.1001 387.7 17.0001 377 11.7001C364 5.40009 353.5 2.60009 336.6 1.00009C320.2 -0.499909 101.7 -0.0999087 87.5001 1.50009ZM371.5 201.8C375.9 202.9 380.7 204.3 382.3 204.9L385 206V225.5C385 236.2 384.8 245 384.5 245C384.2 245 380.9 243.5 377.2 241.6C364.1 235 357.3 233.5 340.5 233.5C324.3 233.6 321.4 234.3 315.1 239.6C305.6 247.6 307.5 258.7 319.7 267.1C322.3 268.9 332 273.9 341.4 278.2C363.2 288.2 371.1 292.9 378.6 300.4C388.1 310 393 322.4 393 337C393 361.1 379.6 379.4 356.2 387.6C332.4 395.8 290.8 394.4 269.3 384.6L264 382.1V361.7C264 350.5 264.3 341.1 264.6 340.7C265 340.4 267.3 341.7 269.9 343.6C281.5 352.5 301 359 316.3 359C337.8 359 350.6 349.5 346.9 336.3C344.4 327.4 335.2 320.9 309.5 310.1C283.6 299.1 268.9 284.9 265.1 267.2C263.7 260.7 263.7 247 265.1 241.1C268.8 225.1 282.4 210.9 300.6 204.3C312.7 200 320.7 199 343 199.4C359.5 199.7 365 200.2 371.5 201.8ZM248.8 220.2L248.5 237.5L221.8 237.8L195 238L194.8 314.3L194.5 390.5H173.5H152.5L152.2 314.3L152 238L125.2 237.8L98.5001 237.5L98.2001 220.2L98.0001 203H173.5H249L248.8 220.2Z" fill="black"/>
</svg>
